# xmcd
#
# Track frame offsets:
#	150
#	17984
#	40156
#	61120
#	87518
#	106394
#	136313
#	156344
#	176736
#	196138
#
# Disc length: 2946 seconds
#
# Revision: 0
# Processed by: cddbd v1.5.2PL0 Copyright (c) Steve Scherf et al.
# Submitted via: EZCDAudioConverter 7.1.5.1
#
DISCID=830b800a
DTITLE=South Breeze - Mo Blues - Summer Afternoon
DYEAR=2016
DGENRE=Blues
TTITLE0=Bring it  on  home
TTITLE1=Today is a good day
TTITLE2=Georgia on my mind
TTITLE3=Folsom prison blues
TTITLE4=Key to the highway
TTITLE5=Summertime
TTITLE6=Baby please don't go
TTITLE7=What did I do
TTITLE8=I used to be a bad boy
TTITLE9=Good morning Angel
EXTD=
EXTT0=
EXTT1=
EXTT2=
EXTT3=
EXTT4=
EXTT5=
EXTT6=
EXTT7=
EXTT8=
EXTT9=
PLAYORDER=
